# xmcd
#
# Track frame offsets:
#	150
#	16555
#	32277
#	51990
#	65225
#	86975
#	104797
#	125545
#	141830
#	157075
# Disc length: 2346 seconds
# Revision: 1
# Processed by: cddbd v1.5.2PL0 Copyright (c) Steve Scherf et al.
#
# Submitted via: libkcddb 0.31
#
DISCID=8d09280a
DTITLE=The Fabulous Thuderbirds - Hot Number
DYEAR=1987
DGENRE=Blues
TTITLE0=Stand Back
TTITLE1=Hot Number
TTITLE2=Wasted Tears
TTITLE3=It Comes To Me Naturally
TTITLE4=Love In Common
TTITLE5=How Do You Spell Love
TTITLE6=Streets Of Gold
TTITLE7=Sofa Circuit
TTITLE8=Don't Bother Tryin' To Steal Her
TTITLE9=It Takes A Big Man To Cry
EXTD=
EXTT0=
EXTT1=
EXTT2=
EXTT3=
EXTT4=
EXTT5=
EXTT6=
EXTT7=
EXTT8=
EXTT9=
PLAYORDER=
